<svg width="19" height="21" viewBox="0 0 19 21" fill="none" xmlns="http://www.w3.org/2000/svg">
<path fill-rule="evenodd" clip-rule="evenodd" d="M8.00017 0.25C5.37682 0.25 3.25017 2.37665 3.25017 5C3.25017 7.62335 5.37682 9.75 8.00017 9.75C10.6235 9.75 12.7502 7.62335 12.7502 5C12.7502 2.37665 10.6235 0.25 8.00017 0.25ZM4.75017 5C4.75017 3.20507 6.20524 1.75 8.00017 1.75C9.79509 1.75 11.2502 3.20507 11.2502 5C11.2502 6.79493 9.79509 8.25 8.00017 8.25C6.20524 8.25 4.75017 6.79493 4.75017 5Z" fill="#2F0D0C"/>
<path d="M2.77854 13.8591C3.18282 13.1719 3.92055 12.75 4.71781 12.75H10.5021C10.9163 12.75 11.2521 12.4142 11.2521 12C11.2521 11.5858 10.9163 11.25 10.5021 11.25H4.71781C3.38904 11.25 2.15949 11.9532 1.48569 13.0984L0.823923 14.2233C0.301605 15.111 0.077551 16.1478 0.291457 17.0798C0.51471 18.0525 1.20635 18.8451 2.33827 19.1375C4.20472 19.6197 6.68445 19.8118 9.02739 19.7328C9.44137 19.7188 9.76565 19.3719 9.7517 18.958C9.73774 18.544 9.39083 18.2197 8.97685 18.2336C6.72508 18.3096 4.39809 18.1204 2.71345 17.6852C2.13789 17.5365 1.85464 17.1852 1.75344 16.7443C1.6429 16.2626 1.74483 15.6161 2.11677 14.9839L2.77854 13.8591Z" fill="#2F0D0C"/>
<path fill-rule="evenodd" clip-rule="evenodd" d="M17.1289 18.318C17.5215 17.7252 17.7502 17.0143 17.7502 16.25C17.7502 14.1789 16.0712 12.5 14.0002 12.5C11.9291 12.5 10.2502 14.1789 10.2502 16.25C10.2502 18.3211 11.9291 20 14.0002 20C14.7645 20 15.4754 19.7713 16.0682 19.3787L16.9702 20.2807C17.2631 20.5736 17.738 20.5736 18.0309 20.2807C18.3237 19.9878 18.3237 19.5129 18.0309 19.22L17.1289 18.318ZM11.7502 16.25C11.7502 15.0074 12.7575 14 14.0002 14C15.2428 14 16.2502 15.0074 16.2502 16.25C16.2502 17.4926 15.2428 18.5 14.0002 18.5C12.7575 18.5 11.7502 17.4926 11.7502 16.25Z" fill="#2F0D0C"/>
</svg>
